<svg xmlns="http://www.w3.org/2000/svg" viewBox="0 0 216 2376"><path fill="#FFF" d="M125.9 25.2c-1.3.6-2.7 1-4.2 1.2 1.5-.9 2.7-2.3 3.2-4-1.4.8-3 1.4-4.7 1.8-1.3-1.4-3.2-2.3-5.4-2.3-4.1 0-7.3 3.3-7.3 7.3 0 .6.1 1.1.2 1.7-6.1-.3-11.5-3.2-15.1-7.6-.6 1.1-1 2.3-1 3.7 0 2.5 1.3 4.8 3.3 6.1-1.2 0-2.3-.4-3.3-.9v.1c0 3.5 2.5 6.5 5.9 7.2-.6.2-1.3.3-1.9.3-.5 0-.9 0-1.4-.1.9 2.9 3.6 5 6.9 5.1-2.5 2-5.7 3.1-9.1 3.1-.6 0-1.2 0-1.8-.1 3.2 2.1 7.1 3.3 11.3 3.3 13.5 0 20.9-11.1 20.9-20.8v-.9c1.2-1.5 2.5-2.7 3.5-4.2z"/><path fill-rule="evenodd" clip-rule="evenodd" fill="#FFF" d="M90.5 175.1v6.8c8.8 0 16 7.2 16 16h6.8c0-12.6-10.2-22.8-22.8-22.8zm0-12.2v6.8c15.6 0 28.3 12.7 28.3 28.3h6.8c-.1-19.4-15.8-35.1-35.1-35.1zm4.1 26.8c-2.3 0-4.1 1.9-4.1 4.1 0 2.3 1.9 4.1 4.1 4.1 2.3 0 4.1-1.9 4.1-4.1 0-2.3-1.8-4.1-4.1-4.1z"/><path fill="#FFF" d="M126.2 313.6h-5.3v-5.3h-1.8v5.4h-5.3v1.7h5.3v5.3l1.8.1v-5.4h5.3v-1.8zm-18.8 13.3c-1-.7-2.8-2.3-2.8-3.3 0-1.1.3-1.7 2-3 1.8-1.4 3-3.3 3-5.5 0-2.6-1.2-5.2-3.4-6h3.4l1.4-.6s-7-1.1-9.6-1.1c-4.8 0-9.2 3.6-9.2 7.7 0 4.2 3.2 7.6 8.1 7.6h1c-.3.6-.5 1.3-.5 2 0 1.2.6 2.1 1.4 2.9h-1.8c-5.9 0-10.4 3.7-10.4 7.5s5 6.1 10.9 6.1c6.7 0 10.4-3.8 10.4-7.5-.2-3.1-1.1-4.9-3.9-6.8zm-5.7-5.3c-2.7-.1-5.3-3-5.8-6.6-.5-3.5 1.4-6.3 4.1-6.2s5.3 2.9 5.8 6.5-1.4 6.4-4.1 6.3zm-1.1 17.9c-4.1 0-7-2.5-7-5.6 0-3 3.7-5.5 7.7-5.4 1 0 1.8.2 2.6.4 2.2 1.5 3.8 2.4 4.2 4.1.1.4.1.7.1 1.1.1 3-1.9 5.4-7.6 5.4zM121.9 605.9c0-6.1-5.2-11.9-13.1-11.9-9.8 0-14.8 7-14.8 12.9 0 3.6 1.3 6.7 4.2 7.9.5.2.9 0 1-.5.1-.4.3-1.3.4-1.7.1-.5.1-.7-.3-1.2-.8-1-1.4-2.3-1.4-4.1 0-5.2 3.9-9.9 10.2-9.9 5.6 0 8.6 3.4 8.6 7.9 0 6-2.6 11-6.6 11-2.2 0-3.8-1.8-3.3-4 .6-2.6 1.8-5.4 1.8-7.3 0-1.7-.9-3.1-2.8-3.1-2.2 0-4 2.3-4 5.4 0 2 .7 3.3.7 3.3s-2.3 9.6-2.7 11.3c-.8 3.3-.1 7.4-.1 7.9 0 .2.3.3.5.1.2-.3 2.8-3.5 3.7-6.8.3-.9 1.5-5.7 1.5-5.7.7 1.4 2.8 2.6 5.1 2.6 6.9.1 11.4-6 11.4-14.1"/><path fill-rule="evenodd" clip-rule="evenodd" fill="#FFF" d="M103.4 758.5v15.7l7.9.1v-15.8h4.9l1.4-6.8h-6.2v-5c0-.7.3-1.9 1.4-1.9l3.6.1-.1-6.8h-7.2c-2.5 0-5.5 3.1-5.5 6.3l-.1 7.3-4.8.1v6.8l4.7-.1zM123.6 913c0 2.4-2 4.3-4.4 4.3-3.4.1-7 .2-10.5.2-3.6 0-7.1-.1-10.5-.2-2.4 0-4.4-1.9-4.4-4.3-.1-1.9-.2-3.8-.2-5.7 0-1.9.1-3.8.2-5.7 0-2.4 2-4.3 4.4-4.3 3.4-.1 7-.2 10.5-.2 3.6 0 7.1.1 10.5.2 2.4 0 4.4 1.9 4.4 4.3.1 1.9.2 3.8.2 5.7 0 2-.1 3.9-.2 5.7zm-21.4-12.6h-6.3v1.9H98v11.4h2.1v-11.4h2.1v-1.9zm5.2 3.5h-1.8v7.5c-.2.2-.4.4-.6.5-.2.1-.4.2-.5.2-.2 0-.3-.1-.4-.2-.1-.1-.1-.3-.1-.5v-7.6h-1.8v8.2c0 .6.1 1 .3 1.3.2.3.5.4 1 .4.3 0 .7-.1 1.1-.3.4-.2.7-.5 1.1-.9v1.1h1.8v-9.7zm7.1 2.3c0-.8-.2-1.4-.5-1.8-.3-.4-.7-.6-1.3-.6-.3 0-.6.1-.8.2-.3.2-.5.4-.8.7v-4.3h-1.9v13.4h1.9v-.8c.2.3.5.5.8.7.3.1.6.2 1 .2.5 0 1-.2 1.2-.6.3-.4.4-.9.4-1.6v-5.5zm6.8 4h-1.9v.7c0 .6-.1 1-.2 1.1-.1.2-.3.3-.6.3s-.5-.1-.6-.3c-.1-.2-.2-.6-.2-1.1V909h3.5v-2.5c0-.9-.2-1.7-.7-2.2-.5-.5-1.1-.7-1.9-.7-.8 0-1.5.3-2 .8s-.8 1.2-.8 2.1v4.4c0 .9.2 1.7.7 2.2.5.5 1.1.8 1.9.8.9 0 1.6-.3 2.1-.8s.7-1.3.7-2.3v-.6zm-3.5-3.7c0-.4.1-.7.2-.9.1-.2.3-.3.6-.3s.5.1.6.3c.1.2.2.5.2.9v1h-1.6v-1zm-5.8 5.8c-.2 0-.3 0-.4-.1-.1-.1-.3-.2-.4-.3v-6.1c.1-.1.3-.2.4-.3.1-.1.3-.1.4-.1.2 0 .4.1.6.3.1.2.2.4.2.8v5.1c0 .3-.1.5-.2.7-.2-.1-.4 0-.6 0zm4.2-17.9c-.3.4-.7.7-1.1.9-.4.2-.7.3-1.1.3-.4 0-.7-.1-1-.4-.2-.3-.3-.7-.3-1.3v-8.2h1.8v7.6c0 .2 0 .4.1.5.1.1.2.2.4.2.1 0 .3-.1.5-.2s.4-.3.6-.5v-7.5h1.8v9.9h-1.8v-1.3zm-7.6 1.3c-.8 0-1.4-.2-1.9-.7-.5-.5-.7-1.2-.7-2v-5.1c0-.8.2-1.4.7-1.8.5-.5 1.2-.7 2-.7s1.4.2 1.9.7c.5.5.7 1.1.7 1.8v5.1c0 .8-.2 1.5-.7 2-.5.5-1.2.7-2 .7zm.8-7.9c0-.2-.1-.4-.2-.5-.1-.1-.3-.2-.6-.2-.2 0-.4.1-.5.2-.1.1-.2.3-.2.5v5.4c0 .3.1.5.2.6.1.1.3.2.6.2.2 0 .4-.1.6-.2.1-.2.2-.4.2-.6v-5.4zm-5.8 7.7h-2.1v-5.3l-2.5-8.1h2.1l1.3 5.3h.1l1.3-5.3h2.1l-2.4 7.8v5.6zM118.8 1061.2V1048c0-3.2-1.4-5.3-4.2-5.3-2.1 0-3.5 1.5-4.1 2.9-.2.5-.1 1.1-.1 1.8v13.9h-7v-16.7c0-3.1-1-6.4-1.4-7h7v2.8h.3c1-1.7 3.5-3.9 7.6-3.9 5 0 8.8 3.4 8.8 10.6v14.2h-6.9zM91 1037.6h8.4v23.7H91v-23.7zm4-3.6c-2.4 0-4-1.7-4-3.8 0-2.2 1.6-3.8 4.1-3.8 2.5 0 4 1.7 4 3.8.1 2.1-1.5 3.8-4.1 3.8zM99.5 1180.7c-3.6 0-6.5 3-6.5 6.6 0 3.7 2.9 6.6 6.5 6.6s6.5-3 6.5-6.6c0-3.6-2.9-6.6-6.5-6.6zm17.5 0c-3.6 0-6.5 3-6.5 6.6 0 3.7 2.9 6.6 6.5 6.6s6.5-3 6.5-6.6c0-3.6-2.9-6.6-6.5-6.6z"/><path fill="#FFF" d="M90.4 1325.2l1.4 1.9s3-2.3 4-1.2c1 1.2 4.8 15.3 6 17.9 1.1 2.3 4.1 5.3 7.5 3.2 3.3-2.2 14.4-11.6 16.4-22.8 2-11.2-13.3-8.8-15 .9 4.1-2.4 6.2 1 4.1 4.9-2.1 3.9-4 6.4-5 6.4s-1.8-2.6-2.9-7.1c-1.2-4.7-1.2-13.1-6-12.2-4.4.9-10.5 8.1-10.5 8.1"/><path fill-rule="evenodd" clip-rule="evenodd" fill="#FFF" d="M96 1466.3c4.5-.3 7.5-.9 7.2-8.4h5.7v8.6h10.5l.1 7.7h-10.6v10c1.2 6.8 8.1 3.1 10.6.7l-.1 6.8c-2 1.5-6.3 2.5-9.5 2.7-5.5-.6-9.4-2.3-9.7-10.7v-9.5h-4.9v-7.6l.7-.3zM116.7 1613.7c-3-1.9-2.3-5.7.1-7.1 1-.6 2-.7 2.9-.5-3.2-2.7-7.3-4.4-11.8-4.4-7 0-13 4-16.1 9.8h9.6v1.3h-.5c-.3.1-.5.1-.6.2-.2.2-.3 1.1-.3 1.1l3.7 15.8 3.4-7.9-1.6-5.2c-.6-1.6-1.1-3-1.5-3.4-.3-.3-.7-.5-1-.6h-.4v-1.3h10.9v1.3h-1.9c-.3.1-.5.2-.7.3-.2.3-.4.6-.4.9 0 .3.1 1.3.1 1.3l4.2 14.6s4.3-8.4 4.4-10.2c.1-1.8-.6-4.8-2.5-6m-24.6-1h-.9c-.9 2.2-1.4 4.5-1.4 7 0 7.5 4.6 14 11.1 16.7l-6.9-22.8c-.1.1-1-.7-1.9-.9m31.3-2.1c.3 1.6.3 3.6-.4 5.8-1.8 5.7-6.1 16-7.8 19.9 6.3-2.8 10.7-9.2 10.7-16.5 0-3.4-.9-6.5-2.5-9.2m-19.8 26.8c1.4.3 2.8.5 4.3.5s3-.2 4.4-.6l-4-11.4-4.7 11.5zM109.9 1745.9c-11.7 0-19.4 9.2-19.4 19.8 0 10.2 7.6 16.4 16.2 16.4 3.7 0 6.4-.4 9.5-1.9l-.9-3c-2.1 1-4.9 1.6-7.5 1.6-7.7 0-13.3-4.9-13.3-13.6 0-9.9 7-16.1 14.9-16.1 8 0 12.4 5.2 12.4 12 0 6-2.8 8.8-5 8.8-1.5-.1-1.8-1.5-1.3-4.5l1.6-9.6c-1.3-.7-3.9-1.3-6.2-1.3-7.5 0-12.1 5.8-12.1 12.1 0 4.3 2.4 6.7 5.8 6.7 2.8 0 5.1-1.3 6.7-4h.1c.3 2.8 2 4 4.5 4 5.6 0 9.9-4.8 9.9-12.4-.3-8.7-6.8-15-15.9-15zm-3.5 23.2c-1.7 0-2.6-1.2-2.6-3.2 0-4 2.7-7.4 6.1-7.4.7 0 1.2.1 1.6.2l-.7 4.9c-.5 3.1-2.5 5.5-4.4 5.5z"/><path fill="#FFF" d="M111.9 1913.1c-.6.6-.1 1.8-.1 1.8l4.7 7.8s.8 1 1.4 1c.7 0 1.3-.5 1.3-.5l3.7-5.3s.4-.7.4-1.2c0-.8-1.2-1.1-1.2-1.1l-8.7-2.8c-.1 0-1-.3-1.5.3zm-.5-3.9c.4.8 1.7.5 1.7.5l8.7-2.5s1.2-.5 1.4-1.1c.2-.6-.2-1.4-.2-1.4l-4.2-4.9s-.4-.6-1.1-.7c-.8-.1-1.3.9-1.3.9l-4.9 7.7c-.1 0-.5.8-.1 1.5zm-4.1-3c1-.3 1.2-1.7 1.2-1.7l-.1-12.4s-.2-1.5-.8-1.9c-1.1-.7-1.4-.3-1.7-.3l-7.2 2.7s-.7.2-1.1.8c-.5.8.5 2.1.5 2.1l7.5 10.3c0-.2.8.6 1.7.4zm-1.8 5c0-1-1.1-1.5-1.1-1.5l-7.8-3.9s-1.2-.5-1.7-.1c-.4.3-.8.7-.8 1.1l-.5 6.2s-.1 1.1.2 1.6c.4.7 1.7.2 1.7.2l9.1-2c.3-.3.9-.3.9-1.6zm2.3 3.4c-.8-.4-1.7.4-1.7.4l-6.1 6.7s-.8 1-.6 1.7c.2.6.5.9.9 1.1l6.1 1.9s.7.2 1.3 0c.8-.2.6-1.5.6-1.5l.1-9.1c.1 0 .1-.9-.6-1.2z"/><g fill="#FFF"><path d="M108 452.8c4.8 0 5.4 0 7.3.1 1.8.1 2.7.4 3.3.6.8.3 1.4.7 2.1 1.3.6.6 1 1.2 1.3 2.1.2.6.5 1.6.6 3.3.1 1.9.1 2.5.1 7.3s0 5.4-.1 7.3c-.1 1.8-.4 2.7-.6 3.3-.3.8-.7 1.4-1.3 2.1-.6.6-1.2 1-2.1 1.3-.6.2-1.6.5-3.3.6-1.9.1-2.5.1-7.3.1s-5.4 0-7.3-.1c-1.8-.1-2.7-.4-3.3-.6-.8-.3-1.4-.7-2.1-1.3-.6-.6-1-1.2-1.3-2.1-.2-.6-.5-1.6-.6-3.3-.1-1.9-.1-2.5-.1-7.3s0-5.4.1-7.3c.1-1.8.4-2.7.6-3.3.3-.8.7-1.4 1.3-2.1.6-.6 1.2-1 2.1-1.3.6-.2 1.6-.5 3.3-.6 1.9-.1 2.5-.1 7.3-.1m0-3.2c-4.9 0-5.5 0-7.4.1-1.9.1-3.2.4-4.4.8-1.2.5-2.2 1.1-3.2 2.1s-1.6 2-2.1 3.2c-.4 1.1-.7 2.4-.8 4.4-.1 1.9-.1 2.5-.1 7.4s0 5.5.1 7.4c.1 1.9.4 3.2.8 4.4.5 1.2 1.1 2.2 2.1 3.2s2 1.6 3.2 2.1c1.1.4 2.4.7 4.4.8 1.9.1 2.5.1 7.4.1s5.5 0 7.4-.1c1.9-.1 3.2-.4 4.4-.8 1.2-.5 2.2-1.1 3.2-2.1s1.6-2 2.1-3.2c.4-1.1.7-2.4.8-4.4.1-1.9.1-2.5.1-7.4s0-5.5-.1-7.4c-.1-1.9-.4-3.2-.8-4.4-.5-1.2-1.1-2.2-2.1-3.2s-2-1.6-3.2-2.1c-1.1-.4-2.4-.7-4.4-.8-2-.1-2.6-.1-7.4-.1z"/><path d="M108 458.3c-5.1 0-9.2 4.1-9.2 9.2s4.1 9.2 9.2 9.2 9.2-4.1 9.2-9.2-4.1-9.2-9.2-9.2zm0 15.2c-3.3 0-6-2.7-6-6s2.7-6 6-6 6 2.7 6 6-2.7 6-6 6z"/><circle cx="117.5" cy="458" r="2.2"/></g></svg>
